<?xml version="1.0" encoding="iso-8859-1"?>
<!-- Generator: Adobe Illustrator 19.0.0, SVG Export Plug-In . SVG Version: 6.00 Build 0)  -->
<svg version="1.1" id="Layer_1" xmlns="http://www.w3.org/2000/svg" xmlns:xlink="http://www.w3.org/1999/xlink" x="0px" y="0px"
	 viewBox="0 0 512.002 512.002" style="enable-background:new 0 0 512.002 512.002;" xml:space="preserve">
<g>
	<g>
		<g>
			<path d="M298.669,170.669c2.185,0,4.369-0.836,6.033-2.5c3.336-3.337,3.336-8.73,0-12.066l-51.2-51.2
				c-3.337-3.337-8.73-3.337-12.066,0c-3.336,3.337-3.336,8.73,0,12.066l51.2,51.2C294.3,169.833,296.484,170.669,298.669,170.669z"
				/>
			<path d="M503.469,204.802h-128v-17.067c0-4.83-0.794-21.393-11.034-31.633l-102.4-102.4c-3.337-3.337-8.73-3.337-12.066,0
				l-153.6,153.6c-3.337,3.337-3.337,8.73,0,12.066c3.337,3.337,8.73,3.337,12.066,0L256.002,71.802l96.367,96.367
				c3.61,3.61,6.033,11.469,6.033,19.567v17.067h-42.667c-4.719,0-8.533,3.823-8.533,8.533c0,4.71,3.814,8.533,8.533,8.533h42.667
				v25.6c0,9.105-1.971,15.505-6.033,19.567l-36.634,36.634l-45.167-45.167c-3.337-3.336-8.73-3.336-12.066,0
				c-3.336,3.337-3.336,8.73,0,12.066l45.167,45.167l-36.634,36.634c-4.446,4.446-13.022,6.033-19.567,6.033h-25.6v-42.667
				c0-4.71-3.823-8.533-8.533-8.533c-4.71,0-8.533,3.823-8.533,8.533v42.667h-17.067c-5.052,0-14.319-0.785-19.567-6.033l-99.9-99.9
				v-44.134L210.835,65.769c2.441-2.441,3.174-6.11,1.852-9.301c-1.323-3.183-4.437-5.265-7.885-5.265h-51.2
				c-2.261,0-4.429,0.896-6.033,2.5l-40.9,40.9L79.277,67.211c6.417-12.322,4.838-29.295-4.975-39.108l-25.6-25.6
				c-3.336-3.336-8.73-3.336-12.066,0L2.502,36.636c-3.336,3.337-3.336,8.73,0,12.066l25.6,25.6c5.658,5.658,14.071,8.9,23.1,8.9
				c5.811,0,11.273-1.468,16.009-3.925l27.392,27.392l-40.9,40.9c-3.337,3.337-3.337,8.73,0,12.066c3.337,3.337,8.73,3.337,12.066,0
				l46.071-46.063c0.333-0.256,0.725-0.384,1.041-0.691c0.307-0.316,0.435-0.708,0.691-1.05l43.563-43.563h27.068l-130.5,130.5
				c-1.604,1.596-2.5,3.772-2.5,6.033v51.2c0,2.261,0.896,4.437,2.5,6.033l102.4,102.4c9.114,9.122,22.229,11.034,31.633,11.034
				h17.067v128c0,4.71,3.823,8.533,8.533,8.533c4.71,0,8.533-3.823,8.533-8.533v-128h25.6c6.195,0,21.675-1.075,31.633-11.034
				l36.634-36.634l130.5,130.5c1.664,1.664,3.849,2.5,6.033,2.5c2.185,0,4.369-0.836,6.033-2.5c3.337-3.336,3.337-8.73,0-12.066
				l-130.5-130.5l36.634-36.634c7.322-7.322,11.034-17.963,11.034-31.633v-25.6h128c4.719,0,8.533-3.823,8.533-8.533
				C512.002,208.625,508.188,204.802,503.469,204.802z M62.236,62.236c-4.881,4.881-17.186,4.881-22.067,0L20.602,42.669
				l22.067-22.067l19.567,19.567C67.39,45.323,67.39,57.082,62.236,62.236z"/>
			<path d="M116.969,241.436c-3.337-3.336-8.73-3.336-12.066,0c-3.337,3.337-3.337,8.73,0,12.066l51.2,51.2
				c1.664,1.664,3.849,2.5,6.033,2.5c2.185,0,4.369-0.836,6.033-2.5c3.336-3.337,3.336-8.73,0-12.066L116.969,241.436z"/>
			<path d="M170.669,213.336c0,23.526,19.14,42.667,42.667,42.667c23.526,0,42.667-19.14,42.667-42.667
				c0-23.526-19.14-42.667-42.667-42.667C189.809,170.669,170.669,189.809,170.669,213.336z M238.935,213.336
				c0,14.114-11.486,25.6-25.6,25.6c-14.114,0-25.6-11.486-25.6-25.6c0-14.114,11.486-25.6,25.6-25.6
				C227.45,187.735,238.935,199.221,238.935,213.336z"/>
		</g>
	</g>
</g>
<g>
</g>
<g>
</g>
<g>
</g>
<g>
</g>
<g>
</g>
<g>
</g>
<g>
</g>
<g>
</g>
<g>
</g>
<g>
</g>
<g>
</g>
<g>
</g>
<g>
</g>
<g>
</g>
<g>
</g>
</svg>
