<?xml version="1.0" encoding="iso-8859-1"?>
<!-- Generator: Adobe Illustrator 19.0.0, SVG Export Plug-In . SVG Version: 6.00 Build 0)  -->
<svg version="1.1" id="Capa_1" xmlns="http://www.w3.org/2000/svg" xmlns:xlink="http://www.w3.org/1999/xlink" x="0px" y="0px"
	 viewBox="0 0 60 60" style="enable-background:new 0 0 60 60;" xml:space="preserve">
<g>
	<g>
		<path d="M21,0C9.4,0,0,9.4,0,21c0,8.5,5.2,16.2,13,19.4V46v7c0,0.6,0.4,1,1,1h2v4h-4v2h4h2h6h2h5v-2h-5v-4h2c0.6,0,1-0.4,1-1v-7
			v-5.6c7.8-3.2,13-10.9,13-19.4C42,9.4,32.6,0,21,0z M27,52h-2c-0.6,0-1,0.4-1,1v5h-6v-4h4v-2h-5h-2v-5h12V52z M27.7,38.8
			c-0.4,0.1-0.7,0.5-0.7,0.9V45h-5V16h3v-2h-8v2h3v29h-5v-5.3c0-0.4-0.3-0.8-0.7-0.9C7,36,2,28.9,2,21C2,10.5,10.5,2,21,2
			s19,8.5,19,19C40,28.9,35,36,27.7,38.8z"/>
		<path d="M59,24h-2v-7c0-0.6-0.4-1-1-1h-3v-4h-2v4h-3c-0.6,0-1,0.4-1,1v7h-2c-0.6,0-1,0.4-1,1v6v20.1c0,0.2,0,0.4,0.2,0.6l4.8,5.7
			V58h-4v2h4h2h2h2h5v-2h-5v-0.6l4.8-5.7c0.1-0.1,0.2-0.4,0.2-0.6V31v-6C60,24.4,59.6,24,59,24z M46,26h2h4v-2h-3v-6h6v7
			c0,0.6,0.4,1,1,1h2v4h-4h-4h-4V26z M46,32h3v22.2l-3-3.5V32z M51,58v-1V32h2v25v1H51z M58,50.8l-3,3.5V32h3V50.8z"/>
		<rect x="51" y="20" width="2" height="2"/>
		<rect x="33" y="58" width="2" height="2"/>
		<rect y="58" width="2" height="2"/>
		<rect x="4" y="58" width="2" height="2"/>
		<rect x="8" y="58" width="2" height="2"/>
		<rect x="37" y="58" width="2" height="2"/>
		<rect x="41" y="58" width="2" height="2"/>
	</g>
</g>
<g>
</g>
<g>
</g>
<g>
</g>
<g>
</g>
<g>
</g>
<g>
</g>
<g>
</g>
<g>
</g>
<g>
</g>
<g>
</g>
<g>
</g>
<g>
</g>
<g>
</g>
<g>
</g>
<g>
</g>
</svg>
