<?xml version="1.0" ?><svg width="64px" height="64px" viewBox="0 0 64 64" style="enable-background:new 0 0 64 64;" version="1.1" xml:space="preserve" xmlns="http://www.w3.org/2000/svg" xmlns:xlink="http://www.w3.org/1999/xlink"><g id="smart_lamp"/><g id="e-wallet"/><g id="virtual_reality"/><g id="payment"/><g id="cloud_storage"/><g id="security_camera"/><g id="smart_home"/><g id="connection"/><g id="game"/><g id="drone"/><g id="smart_car"/><g id="camera"/><g id="online_business"/><g id="smartwatch"/><g id="online_shopping"/><g id="smart_Television"/><g id="security"/><g id="communication"/><g id="remote_control"><g><path d="M50,53h-1.6c0.3-0.6,0.6-1.3,0.6-2c0-2.2-1.8-4-4-4h-0.6c0.3-0.6,0.6-1.3,0.6-2c0-2.2-1.8-4-4-4h-5v-8c0,0,0,0,0-0.1    c2.4-1.4,4-4,4-6.9c0-4.4-3.6-8-8-8s-8,3.6-8,8c0,3,1.6,5.5,4,6.9c0,0,0,0,0,0.1v8h-5c-2.2,0-4,1.8-4,4c0,0.7,0.2,1.4,0.6,2H19    c-2.2,0-4,1.8-4,4c0,0.7,0.2,1.4,0.6,2H14c-1.7,0-3,1.3-3,3v4c0,0.6,0.4,1,1,1h40c0.6,0,1-0.4,1-1v-4C53,54.3,51.7,53,50,53z     M26,26c0-3.3,2.7-6,6-6s6,2.7,6,6s-2.7,6-6,6S26,29.3,26,26z M30,33.7c0.6,0.2,1.3,0.3,2,0.3s1.4-0.1,2-0.3V41h-4V33.7z M21,45    c0-1.1,0.9-2,2-2h6h6h6c1.1,0,2,0.9,2,2s-0.9,2-2,2H23C21.9,47,21,46.1,21,45z M17,51c0-1.1,0.9-2,2-2h4h18h4c1.1,0,2,0.9,2,2    s-0.9,2-2,2H19C17.9,53,17,52.1,17,51z M51,59H13v-3c0-0.6,0.4-1,1-1h5h26h5c0.6,0,1,0.4,1,1V59z"/><path d="M32,13c-3.8,0-7.2,1.9-9.3,5c-0.3,0.5-0.2,1.1,0.3,1.4s1.1,0.2,1.4-0.3c1.7-2.6,4.6-4.1,7.6-4.1s5.9,1.5,7.6,4.1    c0.2,0.3,0.5,0.4,0.8,0.4c0.2,0,0.4-0.1,0.6-0.2c0.5-0.3,0.6-0.9,0.3-1.4C39.2,14.9,35.8,13,32,13z"/><path d="M43.8,15.8c0.2,0.3,0.5,0.4,0.8,0.4c0.2,0,0.4-0.1,0.6-0.2c0.4-0.3,0.5-1,0.2-1.4C42.2,10.4,37.3,8,32,8    s-10.2,2.4-13.4,6.6c-0.3,0.4-0.3,1.1,0.2,1.4c0.4,0.3,1.1,0.3,1.4-0.2C23,12.1,27.3,10,32,10S41,12.1,43.8,15.8z"/><path d="M16,12.5C20,7.7,25.8,5,32,5s12,2.7,16,7.5c0.2,0.2,0.5,0.4,0.8,0.4c0.2,0,0.5-0.1,0.6-0.2c0.4-0.4,0.5-1,0.1-1.4    C45.2,6,38.8,3,32,3s-13.2,3-17.5,8.2c-0.4,0.4-0.3,1.1,0.1,1.4C15,13,15.7,13,16,12.5z"/></g></g><g id="satelite_dish"/></svg>