<svg xmlns="http://www.w3.org/2000/svg" width="48" height="48" enable-background="new 0 0 48 48" viewBox="0 0 48 48"><path d="M5 32c-1.654 0-3-1.346-3-3s1.346-3 3-3 3 1.346 3 3S6.654 32 5 32zM5 28c-.551 0-1 .448-1 1s.449 1 1 1 1-.448 1-1S5.551 28 5 28zM7 48H3c-.552 0-1-.447-1-1v-6c0-.553.448-1 1-1h4c.552 0 1 .447 1 1v6C8 47.553 7.552 48 7 48zM4 46h2v-4H4V46z" fill="#1d5025"/><path d="M9 42H1c-.552 0-1-.447-1-1v-6c0-.553.448-1 1-1h8c.552 0 1 .447 1 1v6C10 41.553 9.552 42 9 42zM2 40h6v-4H2V40zM43 32c-1.654 0-3-1.346-3-3s1.346-3 3-3 3 1.346 3 3S44.654 32 43 32zM43 28c-.552 0-1 .448-1 1s.448 1 1 1 1-.448 1-1S43.552 28 43 28zM45 48h-4c-.553 0-1-.447-1-1v-6c0-.553.447-1 1-1h4c.553 0 1 .447 1 1v6C46 47.553 45.553 48 45 48zM42 46h2v-4h-2V46z" fill="#1d5025"/><path d="M47 42h-8c-.553 0-1-.447-1-1v-6c0-.553.447-1 1-1h8c.553 0 1 .447 1 1v6C48 41.553 47.553 42 47 42zM40 40h6v-4h-6V40zM30 32H18c-.552 0-1-.447-1-1 0-1.836-.71-3.61-2-5.07-2.277-2.578-3.314-5.896-2.919-9.342.629-5.482 5.066-9.903 10.551-10.512 3.419-.381 6.831.707 9.369 2.98C34.543 11.332 36 14.592 36 18c0 2.944-1.079 5.776-3.039 7.974C31.696 27.391 31 29.148 31 30.921 31 31.474 30.553 32 30 32zM18.95 30h10.104c.212-1.974 1.051-3.829 2.415-5.358C33.101 22.812 34 20.453 34 18c0-2.841-1.215-5.557-3.333-7.453-2.146-1.922-4.923-2.802-7.814-2.482-4.567.506-8.261 4.187-8.785 8.752-.33 2.875.534 5.642 2.431 7.789C17.891 26.181 18.743 28.067 18.95 30z" fill="#1d5025"/><path d="M29,36H19c-1.654,0-3-1.346-3-3s1.346-3,3-3h10c1.654,0,3,1.346,3,3S30.654,36,29,36z M19,32c-0.551,0-1,0.448-1,1   s0.449,1,1,1h10c0.552,0,1-0.448,1-1s-0.448-1-1-1H19z" fill="#006754"/><path d="M24 40c-2.757 0-5-2.243-5-5 0-.553.448-1 1-1s1 .447 1 1c0 1.654 1.346 3 3 3s3-1.346 3-3c0-.553.447-1 1-1s1 .447 1 1C29 37.757 26.757 40 24 40zM26 32c-.553 0-1-.447-1-1v-7h-2v7c0 .553-.448 1-1 1s-1-.447-1-1v-7h-1c-1.654 0-3-1.346-3-3s1.346-3 3-3 3 1.346 3 3v1h2v-1c0-1.654 1.346-3 3-3s3 1.346 3 3-1.346 3-3 3h-1v7C27 31.553 26.553 32 26 32zM27 22h1c.552 0 1-.448 1-1s-.448-1-1-1-1 .448-1 1V22zM20 20c-.551 0-1 .448-1 1s.449 1 1 1h1v-1C21 20.448 20.551 20 20 20zM9 20H7c-.552 0-1-.447-1-1s.448-1 1-1h2c.552 0 1 .447 1 1S9.552 20 9 20zM24 4c-.552 0-1-.447-1-1V1c0-.553.448-1 1-1s1 .447 1 1v2C25 3.553 24.552 4 24 4zM41 20h-2c-.553 0-1-.447-1-1s.447-1 1-1h2c.553 0 1 .447 1 1S41.553 20 41 20zM13.414 9.414c-.256 0-.512-.098-.707-.293l-1.414-1.414c-.391-.391-.391-1.023 0-1.414s1.023-.391 1.414 0l1.414 1.414c.391.391.391 1.023 0 1.414C13.926 9.316 13.67 9.414 13.414 9.414zM36 32.042c-.256 0-.512-.098-.707-.293l-1.414-1.415c-.391-.391-.391-1.024 0-1.414.391-.391 1.023-.391 1.414 0l1.414 1.415c.391.391.391 1.024 0 1.414C36.512 31.944 36.256 32.042 36 32.042zM12 32.042c-.256 0-.512-.098-.707-.293-.391-.39-.391-1.023 0-1.414l1.414-1.415c.391-.391 1.024-.391 1.415 0 .391.39.391 1.023 0 1.414l-1.414 1.415C12.512 31.944 12.256 32.042 12 32.042zM34.586 9.414c-.256 0-.512-.098-.707-.293-.391-.391-.391-1.023 0-1.414l1.414-1.414c.391-.391 1.023-.391 1.414 0s.391 1.023 0 1.414l-1.414 1.414C35.098 9.316 34.842 9.414 34.586 9.414z" fill="#006754"/></svg>